<svg width="18" height="18" viewBox="0 0 18 18" fill="none" xmlns="http://www.w3.org/2000/svg">
<path d="M9 0C4.02991 0 0 4.02991 0 9C0 13.9701 4.02991 18 9 18C13.9701 18 18 13.9701 18 9C18 4.02991 13.9701 0 9 0ZM9 16.4732C4.87366 16.4732 1.52679 13.1263 1.52679 9C1.52679 4.87366 4.87366 1.52679 9 1.52679C13.1263 1.52679 16.4732 4.87366 16.4732 9C16.4732 13.1263 13.1263 16.4732 9 16.4732Z" fill="#FF4C4C"/>
<path d="M8.03577 12.5357C8.03577 12.7915 8.13736 13.0367 8.3182 13.2176C8.49904 13.3984 8.74431 13.5 9.00005 13.5C9.2558 13.5 9.50107 13.3984 9.6819 13.2176C9.86274 13.0367 9.96434 12.7915 9.96434 12.5357C9.96434 12.28 9.86274 12.0347 9.6819 11.8539C9.50107 11.673 9.2558 11.5714 9.00005 11.5714C8.74431 11.5714 8.49904 11.673 8.3182 11.8539C8.13736 12.0347 8.03577 12.28 8.03577 12.5357ZM8.51791 10.2857H9.4822C9.57059 10.2857 9.64291 10.2134 9.64291 10.125V4.66071C9.64291 4.57232 9.57059 4.5 9.4822 4.5H8.51791C8.42952 4.5 8.3572 4.57232 8.3572 4.66071V10.125C8.3572 10.2134 8.42952 10.2857 8.51791 10.2857Z" fill="#FF4C4C"/>
</svg>
