<svg width="17" height="17" viewBox="0 0 17 17" fill="none" xmlns="http://www.w3.org/2000/svg">
<path d="M8.71986 3.77558H7.76904C7.68207 3.77558 7.6109 3.84675 7.6109 3.93372V9.3757C7.6109 9.42709 7.63462 9.47454 7.67613 9.50419L10.9437 11.8901C11.0149 11.9415 11.1137 11.9277 11.1651 11.8565L11.7304 11.0856C11.7838 11.0124 11.768 10.9136 11.6968 10.8642L8.87799 8.82616V3.93372C8.87799 3.84675 8.80683 3.77558 8.71986 3.77558ZM13.0647 5.26209L16.1643 6.01919C16.2631 6.04291 16.36 5.96779 16.36 5.86698L16.3758 2.67454C16.3758 2.5421 16.2236 2.46698 16.1208 2.55L13.0054 4.98337C12.9819 5.00159 12.964 5.02608 12.9537 5.05403C12.9435 5.08198 12.9413 5.11225 12.9475 5.14137C12.9537 5.17048 12.968 5.19726 12.9887 5.21862C13.0095 5.23997 13.0358 5.25504 13.0647 5.26209ZM16.3797 11.2141L15.2589 10.8286C15.2198 10.8152 15.1771 10.8176 15.1398 10.8354C15.1025 10.8531 15.0736 10.8847 15.0593 10.9235C15.0217 11.0243 14.9822 11.1231 14.9407 11.222C14.5888 12.0542 14.0847 12.8034 13.4403 13.4458C12.8031 14.0851 12.0478 14.5946 11.2165 14.9462C10.3553 15.3103 9.42953 15.4972 8.49451 15.4957C7.54962 15.4957 6.63439 15.3119 5.77253 14.9462C4.94119 14.5946 4.18596 14.0851 3.54869 13.4458C2.90625 12.8034 2.40218 12.0542 2.04835 11.222C1.68624 10.3603 1.50072 9.43469 1.50276 8.5C1.50276 7.55512 1.6866 6.63791 2.0523 5.77605C2.40416 4.94384 2.90823 4.19465 3.55265 3.55221C4.18991 2.91297 4.94514 2.40344 5.77648 2.05186C6.63439 1.68616 7.5516 1.50233 8.49648 1.50233C9.44137 1.50233 10.3566 1.68616 11.2185 2.05186C12.0498 2.40344 12.805 2.91297 13.4423 3.55221C13.6439 3.75582 13.8337 3.96733 14.0076 4.1907L15.1897 3.26558C13.634 1.27698 11.2125 -0.00197446 8.49253 2.28816e-06C3.75625 0.00197903 -0.0470028 3.84872 0.000439059 8.58698C0.0478809 13.2422 3.83335 17 8.49648 17C12.1633 17 15.2866 14.6753 16.4766 11.4197C16.5062 11.3366 16.4628 11.2437 16.3797 11.2141Z" fill="#6CEAA6"/>
</svg>
