<svg width="34" height="34" viewBox="0 0 34 34" fill="none" xmlns="http://www.w3.org/2000/svg">
<rect x="0.5" y="0.5" width="33" height="33" rx="9.5" stroke="#01A2FD"/>
<path d="M16.8921 10.5056L16.8778 10.5064L16.8635 10.5081C16.5797 10.5415 16.3181 10.678 16.1282 10.8915C15.9383 11.105 15.8334 11.3808 15.8333 11.6666V11.6667V15.8333H11.6667H11.6517L11.6368 15.8342L11.5588 15.8389L11.5444 15.8398L11.5302 15.8414C11.2464 15.8749 10.9847 16.0113 10.7948 16.2248L11.1669 16.5556L10.7948 16.2248C10.6049 16.4384 10.5 16.7142 10.5 16.9999L10.5 17.0149L10.5009 17.0299L10.5056 17.1079L10.5064 17.1222L10.5081 17.1365C10.5415 17.4203 10.678 17.6819 10.8915 17.8718C11.105 18.0617 11.3808 18.1666 11.6666 18.1667H11.6667H15.8333V22.3333V22.3483L15.8342 22.3632L15.8389 22.4412L15.8398 22.4556L15.8414 22.4698C15.8749 22.7536 16.0113 23.0153 16.2248 23.2052L16.5571 22.8315L16.2248 23.2052C16.4384 23.3951 16.7142 23.5 16.9999 23.5L17.0149 23.5L17.0299 23.4991L17.1079 23.4944L17.1222 23.4936L17.1365 23.4919C17.4203 23.4585 17.6819 23.322 17.8718 23.1085C18.0617 22.895 18.1666 22.6192 18.1667 22.3334V22.3333V18.1667H22.3333H22.3483L22.3632 18.1658L22.4412 18.1611L22.4556 18.1602L22.4698 18.1586C22.7536 18.1251 23.0153 17.9887 23.2052 17.7752C23.3951 17.5616 23.5 17.2858 23.5 17.0001L23.5 16.9851L23.4991 16.9701L23.4944 16.8921L23.4936 16.8778L23.4919 16.8635C23.4585 16.5797 23.322 16.3181 23.1085 16.1282C22.895 15.9383 22.6192 15.8334 22.3334 15.8333H22.3333H18.1667V11.6667V11.6517L18.1658 11.6368L18.1611 11.5588L18.1602 11.5444L18.1586 11.5302C18.1251 11.2464 17.9887 10.9847 17.7752 10.7948C17.5616 10.6049 17.2858 10.5 17.0001 10.5L16.9851 10.5L16.9701 10.5009L16.8921 10.5056Z" fill="#01A2FD" stroke="#01A2FD"/>
</svg>
