<svg width="170" height="38" viewBox="0 0 170 38" fill="none" xmlns="http://www.w3.org/2000/svg">
<path d="M141.85 27.2688V36.7328" stroke="#00F1E6" stroke-width="2" stroke-miterlimit="10" stroke-linecap="round"/>
<path d="M141.849 34.8206H143.904" stroke="#00F1E6" stroke-width="2" stroke-miterlimit="10" stroke-linecap="round"/>
<path d="M141.849 32.042H143.904" stroke="#00F1E6" stroke-width="2" stroke-miterlimit="10" stroke-linecap="round"/>
<path d="M0 19.1027C0 14.472 3.70455 10.6807 8.36417 10.6807C13.0238 10.6807 16.7283 14.4431 16.7283 19.0159V26.2513C16.7283 26.8881 16.2363 27.3801 15.6286 27.3801C15.0208 27.3801 14.5288 26.8881 14.5288 26.2513V19.0159C14.5288 15.6586 11.7793 12.9092 8.39311 12.9092C6.71449 12.9092 5.12269 13.5748 3.96502 14.7904C2.77841 16.006 2.17063 17.5977 2.25746 19.2764C2.40217 22.6047 5.12269 25.1515 8.39311 25.1515C9.72444 25.1515 10.9689 24.7464 12.0687 23.936C12.2713 23.7913 12.5028 23.7334 12.7344 23.7334C13.0238 23.7334 13.3422 23.8781 13.5737 24.1096C13.7763 24.3412 13.8631 24.6306 13.8342 24.949C13.8052 25.2673 13.6316 25.5567 13.4 25.7304C11.924 26.8302 10.2164 27.409 8.39311 27.409C3.79137 27.409 0.0289418 23.6755 0.0289418 19.1027H0Z" fill="url(#paint0_linear_601_2271)"/>
<path d="M18.7559 18.9279C18.8137 14.3261 22.5762 10.6505 27.1779 10.6505C30.3036 10.6505 33.1399 12.3291 34.6159 15.1075C34.7896 15.4548 34.7896 15.8311 34.587 16.2073C34.3844 16.5546 34.0081 16.7572 33.6029 16.7572C33.1978 16.7572 32.8215 16.5257 32.6189 16.1495C31.5191 14.0946 29.4064 12.879 27.12 12.879C23.7917 12.9369 21.1001 15.5417 21.0133 18.8121C20.9554 20.5197 21.5632 22.1404 22.7209 23.327C23.9075 24.5426 25.4703 25.2082 27.1779 25.2082C29.4643 25.2082 31.5481 23.9637 32.6189 21.9668C32.8215 21.5905 33.1978 21.359 33.6029 21.359C34.0081 21.359 34.3844 21.5616 34.587 21.9089C34.7896 22.2562 34.7896 22.6903 34.6159 23.0087C33.1399 25.7581 30.2747 27.4657 27.1779 27.4657C22.4604 27.4657 18.669 23.6454 18.7559 18.9568V18.9279Z" fill="url(#paint1_linear_601_2271)"/>
<path d="M36.7827 18.9279C36.8406 14.3261 40.603 10.6505 45.2047 10.6505C48.3304 10.6505 51.1667 12.3291 52.6428 15.1075C52.8164 15.4548 52.8164 15.8311 52.6138 16.2073C52.4112 16.5546 52.035 16.7572 51.6298 16.7572C51.2246 16.7572 50.8484 16.5257 50.6458 16.1495C49.546 14.0946 47.4333 12.879 45.1469 12.879C41.8186 12.9369 39.127 15.5417 39.0402 18.8121C38.9823 20.5197 39.5901 22.1404 40.7477 23.327C41.9343 24.5426 43.4972 25.2082 45.2047 25.2082C47.4911 25.2082 49.5749 23.9637 50.6458 21.9668C50.8484 21.5905 51.2246 21.359 51.6298 21.359C52.035 21.359 52.4112 21.5616 52.6138 21.9089C52.8164 22.2562 52.8164 22.6903 52.6428 23.0087C51.1667 25.7581 48.3015 27.4657 45.2047 27.4657C40.4872 27.4657 36.6959 23.6454 36.7827 18.9568V18.9279Z" fill="url(#paint2_linear_601_2271)"/>
<path d="M63.0948 27.4658C58.522 27.4079 54.7306 23.5297 54.7885 18.9858C54.8464 14.3841 58.5509 10.7085 63.1816 10.7085C67.5518 10.7085 71.1406 13.9789 71.5458 18.3202C71.5747 18.8122 71.4011 19.3042 71.0827 19.6226C70.7354 19.9988 70.3013 20.2014 69.8093 20.2014H59.1008C58.8114 20.2014 58.493 20.0567 58.2905 19.8541C58.0879 19.6226 58.001 19.3042 58.001 19.0148C58.03 18.407 58.5509 17.9729 59.1587 17.9729H69.2883C68.7384 14.8761 66.1047 12.9081 63.0369 12.9081C59.8244 12.9949 57.1907 15.6286 57.046 18.8411C57.017 20.5198 57.6248 22.1116 58.7825 23.3271C59.9691 24.5427 61.5319 25.2083 63.2106 25.2083C65.5548 25.2083 67.7544 23.8481 68.7963 21.7353C68.97 21.3301 69.3752 21.0986 69.8093 21.0986C70.1855 21.0986 70.5618 21.2722 70.7644 21.5906C70.967 21.9379 70.9959 22.3142 70.8223 22.6615C69.433 25.5846 66.452 27.4658 63.2395 27.4658H63.1527H63.0948Z" fill="url(#paint3_linear_601_2271)"/>
<path d="M74.6988 27.3513C74.0911 27.3513 73.5991 26.8593 73.5991 26.2515C73.5991 25.6437 74.0911 25.1807 74.6988 25.1807H81.8185C83.2945 25.1807 84.4811 23.9651 84.3943 22.4891C84.2785 21.1867 83.2077 20.1448 81.8764 20.1448H78.3455C75.7697 20.1448 73.5991 18.09 73.5701 15.5431C73.5412 12.8804 75.6539 10.7966 78.2876 10.7966H85.2047C85.8124 10.7966 86.3045 11.2597 86.3045 11.8675C86.3045 12.4753 85.8124 12.9673 85.2047 12.9673H78.3455C76.8695 12.9673 75.6829 14.1828 75.7697 15.601C75.8565 16.9033 76.9563 17.9452 78.2876 17.9452H81.8764C84.5101 17.9452 86.6228 20.0869 86.5939 22.6917C86.5649 25.2675 84.4232 27.3224 81.8185 27.3224H74.6988V27.3513Z" fill="url(#paint4_linear_601_2271)"/>
<path d="M89.7198 27.3513C89.1121 27.3513 88.6201 26.8593 88.6201 26.2515C88.6201 25.6437 89.1121 25.1807 89.7198 25.1807H96.8395C98.3155 25.1807 99.5021 23.9651 99.4153 22.4891C99.2995 21.1867 98.2287 20.1448 96.8974 20.1448H93.3665C90.7907 20.1448 88.6201 18.09 88.5911 15.5431C88.5622 12.8804 90.6749 10.7966 93.3086 10.7966H100.226C100.833 10.7966 101.325 11.2597 101.325 11.8675C101.325 12.4753 100.833 12.9673 100.226 12.9673H93.3665C91.8905 12.9673 90.7039 14.1828 90.7907 15.601C90.8775 16.9033 91.9773 17.9452 93.3086 17.9452H96.8974C99.5311 17.9452 101.644 20.0869 101.615 22.6917C101.586 25.2675 99.4442 27.3224 96.8395 27.3224H89.7198V27.3513Z" fill="url(#paint5_linear_601_2271)"/>
<path d="M117.069 1.09979V23.6165L129.659 10.911C129.891 10.7085 130.151 10.5637 130.469 10.5637C130.73 10.5637 131.048 10.7085 131.251 10.911C131.685 11.3452 131.685 12.0398 131.251 12.4739L124.739 19.0726L131.251 25.4977C131.482 25.7292 131.598 25.9897 131.598 26.3081C131.598 26.6264 131.482 26.8869 131.251 27.0895C131.048 27.321 130.759 27.4368 130.469 27.4368C130.18 27.4368 129.891 27.321 129.659 27.0895L123.147 20.6644L116.751 27.0895C116.52 27.321 116.259 27.4368 115.941 27.4368C115.68 27.4368 115.362 27.321 115.159 27.0895C114.899 26.8869 114.812 26.5975 114.812 26.2791V1.09979C114.812 0.49201 115.275 0 115.912 0C116.52 0 117.012 0.49201 117.012 1.09979H117.069Z" fill="url(#paint6_linear_601_2271)"/>
<path d="M141.906 27.4658C137.334 27.4079 133.542 23.5297 133.6 18.9858C133.658 14.3841 137.362 10.7085 141.993 10.7085C146.363 10.7085 149.952 13.9789 150.357 18.3202C150.386 18.8122 150.213 19.3042 149.894 19.6226C149.547 19.9988 149.113 20.2014 148.621 20.2014H137.912C137.623 20.2014 137.305 20.0567 137.102 19.8541C136.899 19.6226 136.813 19.3042 136.813 19.0148C136.842 18.407 137.362 17.9729 137.941 17.9729H148.071C147.521 14.8761 144.887 12.9081 141.819 12.9081C138.607 12.9949 135.973 15.6286 135.829 18.8411C135.8 20.5198 136.407 22.1116 137.565 23.3271C138.723 24.5427 140.315 25.2083 141.993 25.2083C144.337 25.2083 146.537 23.8481 147.579 21.7353C147.753 21.3301 148.158 21.0986 148.592 21.0986C148.968 21.0986 149.344 21.2722 149.547 21.5906C149.75 21.9379 149.778 22.3142 149.605 22.6615C148.216 25.5846 145.235 27.4658 142.022 27.4658H141.906V27.4658Z" fill="url(#paint7_linear_601_2271)"/>
<path d="M169.077 11.8366V30.3304H169.049C168.759 34.6138 165.055 37.9999 160.742 37.9999C156.43 37.9999 152.841 34.7585 152.436 30.504C152.407 30.2146 152.494 29.8963 152.696 29.6647C152.899 29.4332 153.188 29.2885 153.507 29.2885C154.086 29.2885 154.578 29.7226 154.607 30.3014C154.954 33.4272 157.559 35.8004 160.713 35.8004C164.071 35.8004 166.82 33.0509 166.82 29.6647V24.7157C165.228 26.4232 163.029 27.4073 160.713 27.4073C156.112 27.4073 152.349 23.6738 152.349 19.101V11.8655C152.349 11.2578 152.841 10.7657 153.449 10.7657C154.086 10.7657 154.549 11.2578 154.549 11.8655V19.101C154.549 22.4582 157.298 25.2077 160.684 25.2077C164.071 25.2077 166.791 22.4582 166.791 19.101V11.8655C166.791 11.2578 167.283 10.7657 167.891 10.7657C168.499 10.7657 168.991 11.2578 168.991 11.8655L169.077 11.8366Z" fill="url(#paint8_linear_601_2271)"/>
<path d="M137.305 8.19017C137.073 8.19017 136.841 8.10334 136.639 7.92969C136.263 7.55345 136.263 6.97461 136.639 6.62731C138.057 5.20916 139.909 4.42773 141.906 4.42773C143.903 4.42773 145.756 5.20916 147.174 6.59837C147.55 6.97461 147.55 7.55345 147.174 7.90075C146.797 8.277 146.219 8.277 145.842 7.90075C144.8 6.85885 143.382 6.28001 141.906 6.28001C140.401 6.28001 139.012 6.85885 137.941 7.92969C137.768 8.10334 137.507 8.19017 137.276 8.19017H137.305Z" fill="#00F1E6"/>
<path d="M134.612 5.15126C134.381 5.15126 134.149 5.06443 133.947 4.89078C133.57 4.51454 133.57 3.9357 133.947 3.5884C138.346 -0.810763 145.466 -0.810763 149.865 3.55946C150.241 3.9357 150.241 4.51454 149.865 4.86184C149.488 5.23808 148.91 5.23808 148.533 4.86184C144.858 1.21517 138.925 1.24411 135.249 4.89078C135.075 5.06443 134.815 5.15126 134.583 5.15126H134.612Z" fill="#00F1E6"/>
<defs>
<linearGradient id="paint0_linear_601_2271" x1="0" y1="19.0159" x2="169.078" y2="19.0159" gradientUnits="userSpaceOnUse">
<stop stop-color="#0098FF"/>
<stop offset="0.88" stop-color="#00F1E6"/>
</linearGradient>
<linearGradient id="paint1_linear_601_2271" x1="0.00163517" y1="19.0147" x2="169.079" y2="19.0147" gradientUnits="userSpaceOnUse">
<stop stop-color="#0098FF"/>
<stop offset="0.88" stop-color="#00F1E6"/>
</linearGradient>
<linearGradient id="paint2_linear_601_2271" x1="-0.00218688" y1="19.0147" x2="169.075" y2="19.0147" gradientUnits="userSpaceOnUse">
<stop stop-color="#0098FF"/>
<stop offset="0.88" stop-color="#00F1E6"/>
</linearGradient>
<linearGradient id="paint3_linear_601_2271" x1="0.00167234" y1="19.0148" x2="169.08" y2="19.0148" gradientUnits="userSpaceOnUse">
<stop stop-color="#0098FF"/>
<stop offset="0.88" stop-color="#00F1E6"/>
</linearGradient>
<linearGradient id="paint4_linear_601_2271" x1="0.000400732" y1="19.0161" x2="169.078" y2="19.0161" gradientUnits="userSpaceOnUse">
<stop stop-color="#0098FF"/>
<stop offset="0.88" stop-color="#00F1E6"/>
</linearGradient>
<linearGradient id="paint5_linear_601_2271" x1="0.000665659" y1="19.0161" x2="169.078" y2="19.0161" gradientUnits="userSpaceOnUse">
<stop stop-color="#0098FF"/>
<stop offset="0.88" stop-color="#00F1E6"/>
</linearGradient>
<linearGradient id="paint6_linear_601_2271" x1="0.000212829" y1="19.0147" x2="169.078" y2="19.0147" gradientUnits="userSpaceOnUse">
<stop stop-color="#0098FF"/>
<stop offset="0.88" stop-color="#00F1E6"/>
</linearGradient>
<linearGradient id="paint7_linear_601_2271" x1="0.00467694" y1="19.0148" x2="169.083" y2="19.0148" gradientUnits="userSpaceOnUse">
<stop stop-color="#0098FF"/>
<stop offset="0.88" stop-color="#00F1E6"/>
</linearGradient>
<linearGradient id="paint8_linear_601_2271" x1="-0.00038632" y1="19.0142" x2="169.077" y2="19.0142" gradientUnits="userSpaceOnUse">
<stop stop-color="#0098FF"/>
<stop offset="0.88" stop-color="#00F1E6"/>
</linearGradient>
</defs>
</svg>
