<svg width="24" height="25" viewBox="0 0 24 25" fill="none" xmlns="http://www.w3.org/2000/svg">
<path d="M12.7059 25L12.3529 21.25H12C8.65882 21.25 5.82353 20.2188 3.49412 18.1562C1.16471 16.0938 0 13.5833 0 10.625C0 7.66667 1.16471 5.15625 3.49412 3.09375C5.82353 1.03125 8.65882 0 12 0C13.6706 0 15.2292 0.275833 16.6758 0.8275C18.1233 1.38 19.3944 2.14042 20.4889 3.10875C21.5826 4.07792 22.4409 5.20292 23.064 6.48375C23.688 7.76542 24 9.14583 24 10.625C24 13.7917 22.9294 16.63 20.7882 19.14C18.6471 21.6508 15.9529 23.6042 12.7059 25ZM11.9647 17.4688C12.3647 17.4688 12.7059 17.3438 12.9882 17.0938C13.2706 16.8438 13.4118 16.5417 13.4118 16.1875C13.4118 15.8333 13.2706 15.5312 12.9882 15.2812C12.7059 15.0312 12.3647 14.9062 11.9647 14.9062C11.5647 14.9062 11.2235 15.0312 10.9412 15.2812C10.6588 15.5312 10.5176 15.8333 10.5176 16.1875C10.5176 16.5417 10.6588 16.8438 10.9412 17.0938C11.2235 17.3438 11.5647 17.4688 11.9647 17.4688ZM12 13.5C12.2588 13.5 12.4941 13.4167 12.7059 13.25C12.9176 13.0833 13.0588 12.8542 13.1294 12.5625C13.1765 12.2917 13.3059 12.0467 13.5176 11.8275C13.7294 11.6092 14.0941 11.2708 14.6118 10.8125C15.0353 10.4375 15.3882 10.0312 15.6706 9.59375C15.9529 9.15625 16.0941 8.6875 16.0941 8.1875C16.0941 7.125 15.6885 6.32792 14.8772 5.79625C14.0649 5.26542 13.1059 5 12 5C11.1765 5 10.4649 5.16667 9.86541 5.5C9.26494 5.83333 8.77647 6.25 8.4 6.75C8.23529 6.97917 8.20565 7.21875 8.31106 7.46875C8.41741 7.71875 8.63529 7.89583 8.96471 8C9.2 8.08333 9.4353 8.08333 9.67059 8C9.90588 7.91667 10.1176 7.76042 10.3059 7.53125C10.4941 7.30208 10.7238 7.11458 10.9948 6.96875C11.2649 6.82292 11.6 6.75 12 6.75C12.6353 6.75 13.112 6.90625 13.4301 7.21875C13.7473 7.53125 13.9059 7.875 13.9059 8.25C13.9059 8.60417 13.7882 8.92167 13.5529 9.2025C13.3176 9.48417 13.0353 9.77083 12.7059 10.0625C12.0471 10.5625 11.6056 10.9688 11.3816 11.2812C11.1586 11.5938 11.0235 12.0208 10.9765 12.5625C10.9529 12.8125 11.0414 13.0312 11.2419 13.2188C11.4414 13.4062 11.6941 13.5 12 13.5Z" fill="#708099"/>
</svg>
