<svg width="34" height="34" viewBox="0 0 34 34" fill="none" xmlns="http://www.w3.org/2000/svg">
<rect x="0.5" y="0.5" width="33" height="33" rx="9.5" stroke="#01A2FD"/>
<path d="M20.5 10.3333H25.5C25.721 10.3333 25.933 10.4211 26.0893 10.5774C26.2455 10.7337 26.3333 10.9457 26.3333 11.1667C26.3333 11.3877 26.2455 11.5996 26.0893 11.7559C25.933 11.9122 25.721 12 25.5 12H24.5783L23.325 23.2933C23.2118 24.3126 22.7267 25.2542 21.9625 25.9381C21.1984 26.622 20.2088 27.0001 19.1833 27H15.15C14.1245 27.0001 13.135 26.622 12.3708 25.9381C11.6067 25.2542 11.1215 24.3126 11.0083 23.2933L9.75333 12H8.83333C8.61232 12 8.40036 11.9122 8.24408 11.7559C8.0878 11.5996 8 11.3877 8 11.1667C8 10.9457 8.0878 10.7337 8.24408 10.5774C8.40036 10.4211 8.61232 10.3333 8.83333 10.3333H13.8333C13.8333 9.44928 14.1845 8.60143 14.8096 7.97631C15.4348 7.35119 16.2826 7 17.1667 7C18.0507 7 18.8986 7.35119 19.5237 7.97631C20.1488 8.60143 20.5 9.44928 20.5 10.3333ZM17.1667 8.66667C16.7246 8.66667 16.3007 8.84226 15.9882 9.15482C15.6756 9.46738 15.5 9.89131 15.5 10.3333H18.8333C18.8333 9.89131 18.6577 9.46738 18.3452 9.15482C18.0326 8.84226 17.6087 8.66667 17.1667 8.66667ZM14.6667 15.3333V22C14.6667 22.221 14.7545 22.433 14.9107 22.5893C15.067 22.7455 15.279 22.8333 15.5 22.8333C15.721 22.8333 15.933 22.7455 16.0893 22.5893C16.2455 22.433 16.3333 22.221 16.3333 22V15.3333C16.3333 15.1123 16.2455 14.9004 16.0893 14.7441C15.933 14.5878 15.721 14.5 15.5 14.5C15.279 14.5 15.067 14.5878 14.9107 14.7441C14.7545 14.9004 14.6667 15.1123 14.6667 15.3333ZM18.8333 14.5C18.6123 14.5 18.4004 14.5878 18.2441 14.7441C18.0878 14.9004 18 15.1123 18 15.3333V22C18 22.221 18.0878 22.433 18.2441 22.5893C18.4004 22.7455 18.6123 22.8333 18.8333 22.8333C19.0543 22.8333 19.2663 22.7455 19.4226 22.5893C19.5789 22.433 19.6667 22.221 19.6667 22V15.3333C19.6667 15.1123 19.5789 14.9004 19.4226 14.7441C19.2663 14.5878 19.0543 14.5 18.8333 14.5Z" fill="#01A2FD"/>
</svg>
