<svg width="20" height="15" viewBox="0 0 20 15" fill="none" xmlns="http://www.w3.org/2000/svg">
<path d="M0 1.5C0 1.10218 0.158035 0.720644 0.43934 0.43934C0.720644 0.158035 1.10218 0 1.5 0H18.5C18.8978 8.38353e-09 19.2794 0.158035 19.5607 0.43934C19.842 0.720644 20 1.10218 20 1.5C20 1.89782 19.842 2.27936 19.5607 2.56066C19.2794 2.84196 18.8978 3 18.5 3H1.5C1.10218 3 0.720644 2.84196 0.43934 2.56066C0.158035 2.27936 0 1.89782 0 1.5ZM4 7.5C4 7.10218 4.15804 6.72064 4.43934 6.43934C4.72064 6.15804 5.10218 6 5.5 6H14.5C14.8978 6 15.2794 6.15804 15.5607 6.43934C15.842 6.72064 16 7.10218 16 7.5C16 7.89782 15.842 8.27936 15.5607 8.56066C15.2794 8.84196 14.8978 9 14.5 9H5.5C5.10218 9 4.72064 8.84196 4.43934 8.56066C4.15804 8.27936 4 7.89782 4 7.5ZM8.5 12C8.10218 12 7.72064 12.158 7.43934 12.4393C7.15804 12.7206 7 13.1022 7 13.5C7 13.8978 7.15804 14.2794 7.43934 14.5607C7.72064 14.842 8.10218 15 8.5 15H11.5C11.8978 15 12.2794 14.842 12.5607 14.5607C12.842 14.2794 13 13.8978 13 13.5C13 13.1022 12.842 12.7206 12.5607 12.4393C12.2794 12.158 11.8978 12 11.5 12H8.5Z" fill="#01A2FD"/>
</svg>
